# xmcd
#
# Track frame offsets:
#	182
#	16037
#	29732
#	44932
#	61710
#	81202
#	100070
#	113495
#	126000
#	154245
#
# Disc length: 2511 seconds
#
# Revision: 5
# Processed by: cddbd v1.5.1PL2 Copyright (c) Steve Scherf et al.
# Submitted via: dBpowerAMP V4.0
#
DISCID=7909cd0a
DTITLE=Hank Williams, Jr. - Hog Wild
DYEAR=1995
DGENRE=Country
TTITLE0=Hog Wild
TTITLE1=I Ain't Going Peacefully
TTITLE2=Between Heaven And Hell
TTITLE3=Iron Horse
TTITLE4=Daytona Nights
TTITLE5=Tobacco Road
TTITLE6=It's A Start
TTITLE7=Greeted In Enid
TTITLE8=Eyes Of Waylon
TTITLE9=Wild Thing
EXTD=
EXTT0=
EXTT1=
EXTT2=
EXTT3=
EXTT4=
EXTT5=
EXTT6=
EXTT7=
EXTT8=
EXTT9=
PLAYORDER=
